<svg xmlns="http://www.w3.org/2000/svg" width="640" height="420" viewBox="0 0 640 420">
  <rect width="640" height="420" fill="#121a28"/>

  <!-- Только бутылки с лейблами; чуть крупнее и ярче неон -->
  <defs>
    <style type="text/css"><![CDATA[
      .lbl { font-family: system-ui, -apple-system, "Segoe UI", Arial, sans-serif; font-size: 9px; font-weight: 700; letter-spacing: 0.04em; text-anchor: middle; dominant-baseline: middle; }
    ]]></style>
  </defs>

  <g fill="none" stroke-width="1.5" stroke-linecap="round" stroke-linejoin="round">

    <!-- VODKA — tall -->
    <g transform="translate(28,24) rotate(-8 15 52)" stroke="#6ec8ff" opacity="0.32">
      <rect x="10" y="0" width="10" height="14" rx="2"/>
      <path d="M7 14 L7 22 Q0 36 0 54 L0 92 Q0 100 15 100 Q30 100 30 92 L30 54 Q30 36 23 22 L23 14"/>
      <rect x="5" y="40" width="20" height="22" rx="2"/>
      <text class="lbl" x="15" y="72" fill="#9ad8ff">VODKA</text>
    </g>

    <!-- COGNAC -->
    <g transform="translate(118,8) rotate(11 17 55)" stroke="#e8a050" opacity="0.34">
      <rect x="11" y="0" width="12" height="16" rx="2"/>
      <path d="M8 16 L8 26 Q2 40 2 58 L2 96 Q2 104 17 104 Q32 104 32 96 L32 58 Q32 40 26 26 L26 16"/>
      <ellipse cx="17" cy="52" rx="12" ry="18"/>
      <text class="lbl" x="17" y="78" fill="#ffd090">COGNAC</text>
    </g>

    <!-- MARTINI (bottle style) -->
    <g transform="translate(210,32) rotate(-14 16 48)" stroke="#ff7eb8" opacity="0.33">
      <rect x="12" y="0" width="8" height="12" rx="2"/>
      <path d="M8 12 L8 20 L4 28 L4 94 Q4 100 16 100 Q28 100 28 94 L28 28 L24 20 L24 12"/>
      <line x1="10" y1="38" x2="22" y2="38"/>
      <text class="lbl" x="16" y="72" fill="#ffb8d8">MARTINI</text>
    </g>

    <!-- WHISKY -->
    <g transform="translate(295,12) rotate(6 14 50)" stroke="#d4a045" opacity="0.34">
      <rect x="9" y="0" width="10" height="13" rx="2"/>
      <path d="M6 13 L6 22 Q1 34 1 52 L1 94 Q1 100 14 100 Q27 100 27 94 L27 52 Q27 34 22 22 L22 13"/>
      <text class="lbl" x="14" y="68" fill="#f0c870">WHISKY</text>
    </g>

    <!-- RUM -->
    <g transform="translate(378,42) rotate(-18 15 45)" stroke="#ff8f6e" opacity="0.33">
      <rect x="10" y="0" width="10" height="12" rx="2"/>
      <path d="M7 12 L7 22 Q2 34 2 50 L2 88 Q2 96 15 96 Q28 96 28 88 L28 50 Q28 34 23 22 L23 12"/>
      <rect x="6" y="36" width="18" height="16" rx="2"/>
      <text class="lbl" x="15" y="74" fill="#ffc0a0">RUM</text>
    </g>

    <!-- GIN -->
    <g transform="translate(455,18) rotate(9 14 48)" stroke="#7cf0c8" opacity="0.32">
      <rect x="9" y="0" width="10" height="15" rx="2"/>
      <path d="M6 15 L6 24 Q1 38 1 56 L1 92 Q1 98 14 98 Q27 98 27 92 L27 56 Q27 38 22 24 L22 15"/>
      <line x1="8" y1="44" x2="20" y2="44"/>
      <line x1="8" y1="52" x2="20" y2="52"/>
      <text class="lbl" x="14" y="78" fill="#b0ffe8">GIN</text>
    </g>

    <!-- TEQUILA -->
    <g transform="translate(538,28) rotate(-5 16 50)" stroke="#e8e050" opacity="0.35">
      <rect x="11" y="0" width="10" height="14" rx="2"/>
      <path d="M8 14 L8 24 Q3 36 3 54 L3 96 Q3 102 16 102 Q29 102 29 96 L29 54 Q29 36 24 24 L24 14"/>
      <text class="lbl" x="16" y="72" fill="#fff898">TEQUILA</text>
    </g>

    <!-- BRANDY -->
    <g transform="translate(48,145) rotate(12 15 48)" stroke="#c97cff" opacity="0.33">
      <rect x="10" y="0" width="10" height="13" rx="2"/>
      <path d="M7 13 L7 24 Q1 38 1 56 L1 92 Q1 98 15 98 Q29 98 29 92 L29 56 Q29 38 23 24 L23 13"/>
      <ellipse cx="15" cy="50" rx="10" ry="16"/>
      <text class="lbl" x="15" y="76" fill="#e8c0ff">BRANDY</text>
    </g>

    <!-- ABSINTHE -->
    <g transform="translate(142,158) rotate(-11 15 45)" stroke="#6dff9a" opacity="0.34">
      <rect x="9" y="0" width="12" height="16" rx="2"/>
      <path d="M6 16 L6 26 Q1 40 1 58 L1 90 Q1 96 15 96 Q29 96 29 90 L29 58 Q29 40 24 26 L24 16"/>
      <line x1="7" y1="40" x2="23" y2="40"/>
      <text class="lbl" x="15" y="72" fill="#c0ffd8">ABSINTHE</text>
    </g>

    <!-- LIQUEUR -->
    <g transform="translate(245,138) rotate(7 14 46)" stroke="#ff66aa" opacity="0.32">
      <rect x="8" y="0" width="12" height="14" rx="2"/>
      <path d="M5 14 L5 24 Q0 36 0 52 L0 88 Q0 94 14 94 Q28 94 28 88 L28 52 Q28 36 23 24 L23 14"/>
      <text class="lbl" x="14" y="66" fill="#ffa8d0">LIQUEUR</text>
    </g>

    <!-- CHAMPAGNE -->
    <g transform="translate(338,152) rotate(-16 14 52)" stroke="#f0e8ff" opacity="0.30">
      <rect x="8" y="0" width="8" height="22" rx="2"/>
      <path d="M5 22 L5 30 Q0 42 0 58 L0 100 Q0 108 12 108 Q24 108 24 100 L24 58 Q24 42 19 30 L19 22"/>
      <path d="M10 6 Q12 -2 14 6"/>
      <text class="lbl" x="12" y="78" fill="#ffffff">CHAMPAGNE</text>
    </g>

    <!-- SCOTCH -->
    <g transform="translate(428,140) rotate(14 15 48)" stroke="#8acbff" opacity="0.33">
      <rect x="10" y="0" width="10" height="13" rx="2"/>
      <path d="M7 13 L7 24 Q2 36 2 54 L2 94 Q2 100 15 100 Q28 100 28 94 L28 54 Q28 36 23 24 L23 13"/>
      <rect x="5" y="38" width="20" height="18" rx="2"/>
      <text class="lbl" x="15" y="76" fill="#d0e8ff">SCOTCH</text>
    </g>

    <!-- BOURBON -->
    <g transform="translate(522,148) rotate(-9 14 46)" stroke="#ffaa55" opacity="0.34">
      <rect x="9" y="0" width="10" height="14" rx="2"/>
      <path d="M6 14 L6 24 Q1 38 1 56 L1 92 Q1 98 14 98 Q27 98 27 92 L27 56 Q27 38 22 24 L22 14"/>
      <text class="lbl" x="14" y="72" fill="#ffd498">BOURBON</text>
    </g>

    <!-- VODKA 2 -->
    <g transform="translate(595,165) rotate(18 14 44)" stroke="#55d0ff" opacity="0.32">
      <rect x="9" y="0" width="10" height="12" rx="2"/>
      <path d="M6 12 L6 22 Q1 34 1 52 L1 88 Q1 94 14 94 Q27 94 27 88 L27 52 Q27 34 22 22 L22 12"/>
      <text class="lbl" x="14" y="64" fill="#a8ecff">VODKA</text>
    </g>

    <!-- VERMOUTH -->
    <g transform="translate(12,268) rotate(-6 15 48)" stroke="#b888ff" opacity="0.33">
      <rect x="10" y="0" width="10" height="15" rx="2"/>
      <path d="M7 15 L7 26 Q2 40 2 58 L2 94 Q2 100 15 100 Q28 100 28 94 L28 58 Q28 40 23 26 L23 15"/>
      <text class="lbl" x="15" y="72" fill="#dcc8ff">VERMOUTH</text>
    </g>

    <!-- COGNAC 2 -->
    <g transform="translate(108,258) rotate(20 16 50)" stroke="#ffb040" opacity="0.34">
      <rect x="11" y="0" width="10" height="14" rx="2"/>
      <path d="M8 14 L8 24 Q3 38 3 56 L3 96 Q3 102 16 102 Q29 102 29 96 L29 56 Q29 38 24 24 L24 14"/>
      <ellipse cx="16" cy="50" rx="11" ry="17"/>
      <text class="lbl" x="16" y="78" fill="#ffe0a0">COGNAC</text>
    </g>

    <!-- MARTINI 2 -->
    <g transform="translate(210,285) rotate(-12 15 46)" stroke="#ff6ec0" opacity="0.33">
      <rect x="10" y="0" width="9" height="13" rx="2"/>
      <path d="M7 13 L7 22 L3 30 L3 92 Q3 98 14.5 98 Q26 98 26 92 L26 30 L22 22 L22 13"/>
      <text class="lbl" x="14.5" y="70" fill="#ffc8e8">MARTINI</text>
    </g>

    <!-- GRAPPA -->
    <g transform="translate(308,268) rotate(8 13 44)" stroke="#88ffcc" opacity="0.32">
      <rect x="8" y="0" width="10" height="18" rx="2"/>
      <path d="M5 18 L5 28 Q0 40 0 56 L0 86 Q0 92 13 92 Q26 92 26 86 L26 56 Q26 40 21 28 L21 18"/>
      <text class="lbl" x="13" y="66" fill="#c0ffe8">GRAPPA</text>
    </g>

    <!-- SAKÉ -->
    <g transform="translate(395,278) rotate(-15 13 42)" stroke="#ff8899" opacity="0.33">
      <rect x="8" y="0" width="10" height="12" rx="2"/>
      <path d="M5 12 L5 22 Q0 34 0 50 L0 82 Q0 88 13 88 Q26 88 26 82 L26 50 Q26 34 21 22 L21 12"/>
      <text class="lbl" x="13" y="62" fill="#ffc8d0">SAKÉ</text>
    </g>

    <!-- PORT -->
    <g transform="translate(478,262) rotate(11 14 46)" stroke="#cc77ff" opacity="0.34">
      <rect x="9" y="0" width="10" height="14" rx="2"/>
      <path d="M6 14 L6 26 Q1 40 1 58 L1 92 Q1 98 14 98 Q27 98 27 92 L27 58 Q27 40 22 26 L22 14"/>
      <text class="lbl" x="14" y="72" fill="#e8c0ff">PORT</text>
    </g>

    <!-- ARMAGNAC -->
    <g transform="translate(556,275) rotate(-7 15 48)" stroke="#ffcc55" opacity="0.33">
      <rect x="10" y="0" width="10" height="13" rx="2"/>
      <path d="M7 13 L7 24 Q2 38 2 56 L2 96 Q2 102 15 102 Q28 102 28 96 L28 56 Q28 38 23 24 L23 13"/>
      <text class="lbl" x="15" y="76" fill="#fff0a8">ARMAGNAC</text>
    </g>

    <!-- MEZCAL -->
    <g transform="translate(75,365) rotate(15 13 40)" stroke="#a0f060" opacity="0.34">
      <rect x="8" y="0" width="10" height="12" rx="2"/>
      <path d="M5 12 L5 22 Q0 32 0 48 L0 78 Q0 84 13 84 Q26 84 26 78 L26 48 Q26 32 21 22 L21 12"/>
      <text class="lbl" x="13" y="58" fill="#d8ffa8">MEZCAL</text>
    </g>

    <!-- ARAK -->
    <g transform="translate(175,355) rotate(-14 13 42)" stroke="#66c8ff" opacity="0.32">
      <rect x="8" y="0" width="10" height="14" rx="2"/>
      <path d="M5 14 L5 24 Q0 36 0 52 L0 84 Q0 90 13 90 Q26 90 26 84 L26 52 Q26 36 21 24 L21 14"/>
      <text class="lbl" x="13" y="64" fill="#b8e8ff">ARAK</text>
    </g>

    <!-- CALVADOS -->
    <g transform="translate(275,348) rotate(6 15 44)" stroke="#ff9955" opacity="0.33">
      <rect x="10" y="0" width="10" height="13" rx="2"/>
      <path d="M7 13 L7 24 Q2 38 2 54 L2 88 Q2 94 15 94 Q28 94 28 88 L28 54 Q28 38 23 24 L23 13"/>
      <text class="lbl" x="15" y="68" fill="#ffd8b8">CALVADOS</text>
    </g>

    <!-- RUM 2 -->
    <g transform="translate(388,358) rotate(-10 14 44)" stroke="#ff7878" opacity="0.34">
      <rect x="9" y="0" width="10" height="12" rx="2"/>
      <path d="M6 12 L6 22 Q1 34 1 50 L1 86 Q1 92 14 92 Q27 92 27 86 L27 50 Q27 34 22 22 L22 12"/>
      <text class="lbl" x="14" y="68" fill="#ffb8b8">RUM</text>
    </g>

    <!-- GIN 2 -->
    <g transform="translate(490,350) rotate(13 13 42)" stroke="#44e8c8" opacity="0.32">
      <rect x="8" y="0" width="10" height="14" rx="2"/>
      <path d="M5 14 L5 24 Q0 36 0 52 L0 84 Q0 90 13 90 Q26 90 26 84 L26 52 Q26 36 21 24 L21 14"/>
      <text class="lbl" x="13" y="64" fill="#a8ffe8">GIN</text>
    </g>

  </g>
</svg>
