<svg xmlns="http://www.w3.org/2000/svg" viewBox="0 0 32 32">
  <rect width="32" height="32" rx="7" fill="#0d0e14"/>
  <g transform="translate(4 4)" fill="none" stroke="#ffb932" stroke-width="1.35" stroke-linecap="round" stroke-linejoin="round">
    <path d="M5 7h10v10a2 2 0 0 1-2 2H7a2 2 0 0 1-2-2V7z"/>
    <path d="M15 9h2.5a2.5 2.5 0 0 1 0 5H15"/>
    <path d="M5 7c0-2 1.8-3.2 3.5-2.4.8-1.4 2.8-1.7 3.9-.6 1-1.2 2.9-1 3.6.5 1-.4 1.8.5 1.8 1.5" fill="#ffb932" fill-opacity=".2"/>
    <path d="M7 11v5" stroke-width="1.2" opacity=".5"/>
    <path d="M10 11v5" stroke-width="1.2" opacity=".5"/>
  </g>
</svg>
