<svg xmlns="http://www.w3.org/2000/svg" width="720" height="420" viewBox="0 0 720 420">
  <defs>
    <style>.lbl{font-family:system-ui;font-size:8px;font-weight:300;letter-spacing:.12em;text-anchor:middle}</style>
  </defs>
  <g fill="none" stroke-width="1.6" stroke-linecap="round" stroke-linejoin="round" opacity=".62">

    <g transform="translate(55,16) rotate(-8)" stroke="#00aaff" opacity=".55">
      <path d="M0 0 L12 30 L24 0Z"/>
      <line x1="12" y1="30" x2="12" y2="50"/><line x1="4" y1="50" x2="20" y2="50"/>
      <line x1="6" y1="20" x2="18" y2="12"/><circle cx="18" cy="12" r="3"/>
      <text class="lbl" x="12" y="62" fill="#66ccff">MARTINI</text>
    </g>
    <g transform="translate(148,12) rotate(10)" stroke="#ff00cc" opacity=".52">
      <rect x="0" y="0" width="22" height="54" rx="2"/>
      <rect x="3" y="32" width="7" height="7" rx="1"/><rect x="12" y="36" width="7" height="7" rx="1"/>
      <line x1="16" y1="0" x2="12" y2="54"/>
      <text class="lbl" x="11" y="66" fill="#ff88ee">MOJITO</text>
    </g>
    <g transform="translate(240,30)" stroke="#88ff00" opacity=".5">
      <path d="M0 13 A13 13 0 1 1 26 13"/>
      <line x1="13" y1="0" x2="13" y2="26"/><line x1="0" y1="13" x2="26" y2="13"/>
      <line x1="4" y1="4" x2="22" y2="22"/><line x1="22" y1="4" x2="4" y2="22"/>
    </g>
    <g transform="translate(325,10) rotate(6)" stroke="#ff8800" opacity=".52">
      <path d="M0 0 L12 30 L24 0Z"/>
      <line x1="12" y1="30" x2="12" y2="50"/><line x1="4" y1="50" x2="20" y2="50"/>
      <line x1="5" y1="22" x2="19" y2="12"/><circle cx="19" cy="12" r="3"/>
      <text class="lbl" x="12" y="62" fill="#ffaa44">NEGRONI</text>
    </g>
    <g transform="translate(415,26)" stroke="#aaddff" opacity=".42">
      <rect x="0" y="0" width="12" height="12" rx="2"/><rect x="14" y="5" width="12" height="12" rx="2"/>
      <rect x="5" y="15" width="12" height="12" rx="2"/>
    </g>
    <g transform="translate(495,14) rotate(-9)" stroke="#00ffcc" opacity=".52">
      <rect x="0" y="0" width="22" height="54" rx="2"/>
      <rect x="3" y="30" width="7" height="7" rx="1"/><rect x="12" y="34" width="7" height="7" rx="1"/>
      <line x1="6" y1="0" x2="10" y2="54"/>
      <text class="lbl" x="11" y="66" fill="#88ffee">DAIQUIRI</text>
    </g>
    <g transform="translate(585,20) rotate(13)" stroke="#ff0099" opacity=".55">
      <path d="M0 0 L12 30 L24 0Z"/>
      <line x1="12" y1="30" x2="12" y2="50"/><line x1="4" y1="50" x2="20" y2="50"/>
      <circle cx="12" cy="12" r="4"/>
      <text class="lbl" x="12" y="62" fill="#ff66cc">COSMO</text>
    </g>

    <g transform="translate(65,148) rotate(9)" stroke="#ffdd00" opacity=".52">
      <path d="M0 0 L12 30 L24 0Z"/>
      <line x1="12" y1="30" x2="12" y2="50"/><line x1="4" y1="50" x2="20" y2="50"/>
      <text class="lbl" x="12" y="62" fill="#ffee66">GIMLET</text>
    </g>
    <g transform="translate(158,158)" stroke="#aaff00" opacity=".5">
      <path d="M0 13 A13 13 0 1 1 26 13"/>
      <line x1="13" y1="0" x2="13" y2="26"/><line x1="0" y1="13" x2="26" y2="13"/>
    </g>
    <g transform="translate(250,138) rotate(-11)" stroke="#00ccff" opacity=".52">
      <rect x="0" y="0" width="22" height="54" rx="2"/>
      <rect x="3" y="32" width="7" height="7" rx="1"/><rect x="12" y="36" width="7" height="7" rx="1"/>
      <line x1="16" y1="0" x2="12" y2="54"/>
      <text class="lbl" x="11" y="66" fill="#66eeff">HIGHBALL</text>
    </g>
    <g transform="translate(348,155)" stroke="#ccaaff" opacity=".42">
      <rect x="0" y="0" width="12" height="12" rx="2"/><rect x="14" y="5" width="12" height="12" rx="2"/>
      <rect x="5" y="15" width="12" height="12" rx="2"/>
    </g>
    <g transform="translate(432,143) rotate(7)" stroke="#ff4400" opacity=".52">
      <path d="M0 0 L12 30 L24 0Z"/>
      <line x1="12" y1="30" x2="12" y2="50"/><line x1="4" y1="50" x2="20" y2="50"/>
      <line x1="5" y1="22" x2="19" y2="12"/><circle cx="19" cy="12" r="3"/>
      <text class="lbl" x="12" y="62" fill="#ff8844">APEROL</text>
    </g>
    <g transform="translate(525,150) rotate(-13)" stroke="#bb00ff" opacity=".52">
      <rect x="0" y="0" width="22" height="54" rx="2"/>
      <rect x="3" y="30" width="7" height="7" rx="1"/>
      <line x1="6" y1="0" x2="10" y2="54"/>
      <text class="lbl" x="11" y="66" fill="#dd88ff">PISCO</text>
    </g>
    <g transform="translate(622,140) rotate(10)" stroke="#00ff88" opacity=".55">
      <path d="M0 0 L12 30 L24 0Z"/>
      <line x1="12" y1="30" x2="12" y2="50"/><line x1="4" y1="50" x2="20" y2="50"/>
      <text class="lbl" x="12" y="62" fill="#88ffcc">STINGER</text>
    </g>

    <g transform="translate(48,276) rotate(-7)" stroke="#ff6600" opacity=".52">
      <rect x="0" y="0" width="22" height="54" rx="2"/>
      <rect x="3" y="32" width="7" height="7" rx="1"/><rect x="12" y="36" width="7" height="7" rx="1"/>
      <line x1="16" y1="0" x2="12" y2="54"/>
      <text class="lbl" x="11" y="66" fill="#ffaa44">SLING</text>
    </g>
    <g transform="translate(155,264) rotate(14)" stroke="#ff00ff" opacity=".52">
      <path d="M0 0 L12 30 L24 0Z"/>
      <line x1="12" y1="30" x2="12" y2="50"/><line x1="4" y1="50" x2="20" y2="50"/>
      <circle cx="12" cy="16" r="4"/>
      <text class="lbl" x="12" y="62" fill="#ff88ff">AVIATION</text>
    </g>
    <g transform="translate(255,278)" stroke="#88ff00" opacity=".5">
      <path d="M0 13 A13 13 0 1 1 26 13"/>
      <line x1="13" y1="0" x2="13" y2="26"/><line x1="0" y1="13" x2="26" y2="13"/>
    </g>
    <g transform="translate(348,264) rotate(-8)" stroke="#00eeff" opacity=".52">
      <rect x="0" y="0" width="22" height="54" rx="2"/>
      <rect x="3" y="30" width="7" height="7" rx="1"/><rect x="12" y="34" width="7" height="7" rx="1"/>
      <line x1="6" y1="0" x2="10" y2="54"/>
      <text class="lbl" x="11" y="66" fill="#88ffff">ZOMBIE</text>
    </g>
    <g transform="translate(445,274)" stroke="#ccddff" opacity=".42">
      <rect x="0" y="0" width="12" height="12" rx="2"/><rect x="14" y="5" width="12" height="12" rx="2"/>
      <rect x="5" y="15" width="12" height="12" rx="2"/>
    </g>
    <g transform="translate(535,268) rotate(9)" stroke="#ff0044" opacity=".55">
      <path d="M0 0 L12 30 L24 0Z"/>
      <line x1="12" y1="30" x2="12" y2="50"/><line x1="4" y1="50" x2="20" y2="50"/>
      <text class="lbl" x="12" y="62" fill="#ff6688">MANHATTAN</text>
    </g>
    <g transform="translate(625,268) rotate(-11)" stroke="#00ff44" opacity=".52">
      <rect x="0" y="0" width="22" height="54" rx="2"/>
      <line x1="16" y1="0" x2="12" y2="54"/>
      <text class="lbl" x="11" y="66" fill="#88ffaa">CUBA</text>
    </g>

    <g transform="translate(98,365) rotate(8)" stroke="#ff8800" opacity=".52">
      <path d="M0 0 L12 30 L24 0Z"/>
      <line x1="12" y1="30" x2="12" y2="50"/><line x1="4" y1="50" x2="20" y2="50"/>
    </g>
    <g transform="translate(208,358) rotate(-9)" stroke="#00ccff" opacity=".52">
      <rect x="0" y="0" width="22" height="54" rx="2"/>
      <rect x="3" y="32" width="7" height="7" rx="1"/>
      <line x1="16" y1="0" x2="12" y2="54"/>
    </g>
    <g transform="translate(318,365)" stroke="#ccff00" opacity=".5">
      <path d="M0 13 A13 13 0 1 1 26 13"/>
      <line x1="13" y1="0" x2="13" y2="26"/><line x1="0" y1="13" x2="26" y2="13"/>
    </g>
    <g transform="translate(415,358) rotate(12)" stroke="#cc00ff" opacity=".52">
      <path d="M0 0 L12 30 L24 0Z"/>
      <line x1="12" y1="30" x2="12" y2="50"/><line x1="4" y1="50" x2="20" y2="50"/>
    </g>
    <g transform="translate(525,365)" stroke="#aabbff" opacity=".42">
      <rect x="0" y="0" width="12" height="12" rx="2"/><rect x="14" y="5" width="12" height="12" rx="2"/>
    </g>
    <g transform="translate(625,360) rotate(-6)" stroke="#ff4488" opacity=".52">
      <rect x="0" y="0" width="22" height="54" rx="2"/>
      <line x1="6" y1="0" x2="10" y2="54"/>
    </g>

  </g>
</svg>
