<svg xmlns="http://www.w3.org/2000/svg" width="720" height="420" viewBox="0 0 720 420">
  <defs>
    <style>.lbl{font-family:system-ui;font-size:8px;font-weight:300;letter-spacing:.12em;text-anchor:middle}</style>
  </defs>
  <!-- Light theme: 1:1 как dark по плотности, приглушаем одной общей прозрачностью -->
  <g fill="none" stroke-width="1.6" stroke-linecap="round" stroke-linejoin="round" opacity=".32">
    <g transform="translate(55,18) rotate(-7)" stroke="#cc0044" opacity=".55">
      <path d="M4 0 Q-1 18 8 30 Q12 36 12 36 Q12 36 16 30 Q25 18 20 0Z"/>
      <line x1="12" y1="36" x2="12" y2="58"/><line x1="4" y1="58" x2="20" y2="58"/>
      <path d="M4 0 Q-1 18 8 24 Q12 28 12 28" opacity=".45"/>
      <text class="lbl" x="12" y="70" fill="#ff6688">MERLOT</text>
    </g>
    <g transform="translate(138,28)" stroke="#aa00cc" opacity=".52">
      <circle cx="8" cy="20" r="6"/><circle cx="20" cy="20" r="6"/><circle cx="14" cy="10" r="6"/>
      <circle cx="14" cy="30" r="6"/><circle cx="2" cy="12" r="6"/><circle cx="26" cy="12" r="6"/>
      <line x1="14" y1="4" x2="14" y2="-10"/><path d="M14 -10 Q20 -14 24 -10" fill="none"/>
    </g>
    <g transform="translate(228,10) rotate(9)" stroke="#ddcc00" opacity=".52">
      <path d="M4 0 Q-1 18 8 30 Q12 36 12 36 Q12 36 16 30 Q25 18 20 0Z"/>
      <line x1="12" y1="36" x2="12" y2="58"/><line x1="4" y1="58" x2="20" y2="58"/>
      <text class="lbl" x="12" y="70" fill="#eedd44">CHARDONNAY</text>
    </g>
    <g transform="translate(325,28) rotate(-15)" stroke="#cc8844" opacity=".5">
      <rect x="0" y="0" width="12" height="28" rx="3"/>
      <line x1="3" y1="9" x2="9" y2="9" opacity=".6"/><line x1="3" y1="16" x2="9" y2="16" opacity=".6"/><line x1="3" y1="22" x2="9" y2="22" opacity=".6"/>
    </g>
    <g transform="translate(400,16) rotate(-11)" stroke="#ff44aa" opacity=".52">
      <path d="M4 0 Q-1 18 8 30 Q12 36 12 36 Q12 36 16 30 Q25 18 20 0Z"/>
      <line x1="12" y1="36" x2="12" y2="58"/><line x1="4" y1="58" x2="20" y2="58"/>
      <text class="lbl" x="12" y="70" fill="#ff88cc">ROSE</text>
    </g>
    <g transform="translate(488,25)" stroke="#8800aa" opacity=".52">
      <circle cx="8" cy="20" r="6"/><circle cx="20" cy="20" r="6"/><circle cx="14" cy="10" r="6"/>
      <circle cx="14" cy="30" r="6"/><circle cx="2" cy="12" r="6"/>
      <line x1="14" y1="4" x2="14" y2="-10"/>
    </g>
    <g transform="translate(572,12) rotate(13)" stroke="#aa0033" opacity=".55">
      <path d="M4 0 Q-1 18 8 30 Q12 36 12 36 Q12 36 16 30 Q25 18 20 0Z"/>
      <line x1="12" y1="36" x2="12" y2="58"/><line x1="4" y1="58" x2="20" y2="58"/>
      <text class="lbl" x="12" y="70" fill="#ff4466">CABERNET</text>
    </g>

    <g transform="translate(72,148) rotate(8)" stroke="#ff1177" opacity=".52">
      <path d="M4 0 Q-1 18 8 30 Q12 36 12 36 Q12 36 16 30 Q25 18 20 0Z"/>
      <line x1="12" y1="36" x2="12" y2="58"/><line x1="4" y1="58" x2="20" y2="58"/>
      <text class="lbl" x="12" y="70" fill="#ff66aa">BORDEAUX</text>
    </g>
    <g transform="translate(162,158)" stroke="#cc00aa" opacity=".52">
      <circle cx="8" cy="20" r="6"/><circle cx="20" cy="20" r="6"/><circle cx="14" cy="10" r="6"/>
      <circle cx="14" cy="30" r="6"/><circle cx="2" cy="12" r="6"/><circle cx="26" cy="12" r="6"/>
      <line x1="14" y1="4" x2="14" y2="-10"/>
    </g>
    <g transform="translate(260,138)" stroke="#880022" opacity=".55">
      <rect x="9" y="0" width="8" height="16" rx="2"/>
      <path d="M6 16 L6 26 Q1 38 1 54 L1 96 Q1 102 13 102 Q25 102 25 96 L25 54 Q25 38 20 26 L20 16"/>
      <rect x="4" y="40" width="18" height="20" rx="2"/>
      <text class="lbl" x="13" y="80" fill="#ff6688">WINE</text>
    </g>
    <g transform="translate(365,148) rotate(-8)" stroke="#cc3300" opacity=".52">
      <path d="M4 0 Q-1 18 8 30 Q12 36 12 36 Q12 36 16 30 Q25 18 20 0Z"/>
      <line x1="12" y1="36" x2="12" y2="58"/><line x1="4" y1="58" x2="20" y2="58"/>
      <text class="lbl" x="12" y="70" fill="#ff8866">SHIRAZ</text>
    </g>
    <g transform="translate(455,158) rotate(10)" stroke="#aa5500" opacity=".5">
      <rect x="0" y="0" width="12" height="28" rx="3"/>
      <line x1="3" y1="9" x2="9" y2="9" opacity=".6"/><line x1="3" y1="16" x2="9" y2="16" opacity=".6"/>
    </g>
    <g transform="translate(540,142)" stroke="#9900cc" opacity=".52">
      <circle cx="8" cy="20" r="6"/><circle cx="20" cy="20" r="6"/><circle cx="14" cy="10" r="6"/>
      <circle cx="14" cy="30" r="6"/><circle cx="26" cy="12" r="6"/>
      <line x1="14" y1="4" x2="14" y2="-10"/>
    </g>
    <g transform="translate(632,148) rotate(-6)" stroke="#ff0055" opacity=".55">
      <path d="M4 0 Q-1 18 8 30 Q12 36 12 36 Q12 36 16 30 Q25 18 20 0Z"/>
      <line x1="12" y1="36" x2="12" y2="58"/><line x1="4" y1="58" x2="20" y2="58"/>
      <text class="lbl" x="12" y="70" fill="#ff66aa">PINOT</text>
    </g>

    <g transform="translate(50,278)" stroke="#bb0044" opacity=".55">
      <rect x="9" y="0" width="8" height="16" rx="2"/>
      <path d="M6 16 L6 26 Q1 38 1 54 L1 96 Q1 102 13 102 Q25 102 25 96 L25 54 Q25 38 20 26 L20 16"/>
      <text class="lbl" x="13" y="80" fill="#ff6688">ROUGE</text>
    </g>
    <g transform="translate(162,268) rotate(12)" stroke="#cc1155" opacity=".52">
      <path d="M4 0 Q-1 18 8 30 Q12 36 12 36 Q12 36 16 30 Q25 18 20 0Z"/>
      <line x1="12" y1="36" x2="12" y2="58"/><line x1="4" y1="58" x2="20" y2="58"/>
      <text class="lbl" x="12" y="70" fill="#ff88aa">CLARET</text>
    </g>
    <g transform="translate(262,284)" stroke="#880099" opacity=".52">
      <circle cx="8" cy="20" r="6"/><circle cx="20" cy="20" r="6"/><circle cx="14" cy="10" r="6"/>
      <circle cx="14" cy="30" r="6"/><line x1="14" y1="4" x2="14" y2="-10"/>
    </g>
    <g transform="translate(360,266) rotate(-9)" stroke="#ee4400" opacity=".52">
      <path d="M4 0 Q-1 18 8 30 Q12 36 12 36 Q12 36 16 30 Q25 18 20 0Z"/>
      <line x1="12" y1="36" x2="12" y2="58"/><line x1="4" y1="58" x2="20" y2="58"/>
      <text class="lbl" x="12" y="70" fill="#ff8844">MALBEC</text>
    </g>
    <g transform="translate(460,278) rotate(7)" stroke="#cc7700" opacity=".5">
      <rect x="0" y="0" width="12" height="28" rx="3"/>
      <line x1="3" y1="9" x2="9" y2="9" opacity=".6"/><line x1="3" y1="16" x2="9" y2="16" opacity=".6"/>
    </g>
    <g transform="translate(548,268)" stroke="#cc0099" opacity=".52">
      <circle cx="8" cy="20" r="6"/><circle cx="20" cy="20" r="6"/><circle cx="14" cy="10" r="6"/>
      <circle cx="14" cy="30" r="6"/><circle cx="2" cy="12" r="6"/>
      <line x1="14" y1="4" x2="14" y2="-10"/>
    </g>
    <g transform="translate(642,278) rotate(-14)" stroke="#ff2266" opacity=".52">
      <path d="M4 0 Q-1 18 8 30 Q12 36 12 36 Q12 36 16 30 Q25 18 20 0Z"/>
      <line x1="12" y1="36" x2="12" y2="58"/><line x1="4" y1="58" x2="20" y2="58"/>
      <text class="lbl" x="12" y="70" fill="#ff88aa">SYRAH</text>
    </g>

    <g transform="translate(108,368) rotate(6)" stroke="#aa0033" opacity=".52">
      <path d="M4 0 Q-1 18 8 30 Q12 36 12 36 Q12 36 16 30 Q25 18 20 0Z"/>
      <line x1="12" y1="36" x2="12" y2="58"/><line x1="4" y1="58" x2="20" y2="58"/>
    </g>
    <g transform="translate(210,358)" stroke="#9900aa" opacity=".52">
      <circle cx="8" cy="20" r="6"/><circle cx="20" cy="20" r="6"/><circle cx="14" cy="10" r="6"/>
      <circle cx="14" cy="30" r="6"/><line x1="14" y1="4" x2="14" y2="-10"/>
    </g>
    <g transform="translate(312,360) rotate(-10)" stroke="#dd0055" opacity=".55">
      <rect x="9" y="0" width="8" height="16" rx="2"/>
      <path d="M6 16 L6 26 Q1 38 1 54 L1 76 Q1 82 13 82 Q25 82 25 76 L25 54 Q25 38 20 26 L20 16"/>
    </g>
    <g transform="translate(412,365) rotate(11)" stroke="#ff44aa" opacity=".52">
      <path d="M4 0 Q-1 18 8 30 Q12 36 12 36 Q12 36 16 30 Q25 18 20 0Z"/>
      <line x1="12" y1="36" x2="12" y2="58"/><line x1="4" y1="58" x2="20" y2="58"/>
    </g>
    <g transform="translate(518,360)" stroke="#aa00cc" opacity=".52">
      <circle cx="8" cy="20" r="6"/><circle cx="20" cy="20" r="6"/><circle cx="14" cy="10" r="6"/>
      <line x1="14" y1="4" x2="14" y2="-10"/>
    </g>
    <g transform="translate(620,358) rotate(-7)" stroke="#cc0044" opacity=".52">
      <path d="M4 0 Q-1 18 8 30 Q12 36 12 36 Q12 36 16 30 Q25 18 20 0Z"/>
      <line x1="12" y1="36" x2="12" y2="58"/><line x1="4" y1="58" x2="20" y2="58"/>
    </g>
  </g>
</svg>
